<svg width="34" height="27" viewBox="0 0 34 27" fill="none" xmlns="http://www.w3.org/2000/svg">
<path d="M28.475 0H5.025C3.69229 0 2.41416 0.529418 1.47179 1.47179C0.529418 2.41416 0 3.69229 0 5.025V21.775C0 23.1077 0.529418 24.3858 1.47179 25.3282C2.41416 26.2706 3.69229 26.8 5.025 26.8H28.475C29.8077 26.8 31.0858 26.2706 32.0282 25.3282C32.9706 24.3858 33.5 23.1077 33.5 21.775V5.025C33.5 3.69229 32.9706 2.41416 32.0282 1.47179C31.0858 0.529418 29.8077 0 28.475 0ZM27.3527 3.35L16.75 11.3062L6.14725 3.35H27.3527ZM28.475 23.45H5.025C4.58076 23.45 4.15472 23.2735 3.8406 22.9594C3.52647 22.6453 3.35 22.2192 3.35 21.775V5.44375L15.745 14.74C16.0349 14.9575 16.3876 15.075 16.75 15.075C17.1124 15.075 17.4651 14.9575 17.755 14.74L30.15 5.44375V21.775C30.15 22.2192 29.9735 22.6453 29.6594 22.9594C29.3453 23.2735 28.9192 23.45 28.475 23.45Z" fill="#FBFBFB"/>
</svg>
