<svg width="27" height="37" viewBox="0 0 27 37" fill="none" xmlns="http://www.w3.org/2000/svg">
<path d="M13.4994 8.53885C12.5168 8.53885 11.5563 8.83021 10.7393 9.3761C9.92237 9.92199 9.28561 10.6979 8.9096 11.6057C8.53359 12.5134 8.4352 13.5123 8.62689 14.476C8.81858 15.4397 9.29174 16.3249 9.98652 17.0197C10.6813 17.7145 11.5665 18.1876 12.5302 18.3793C13.4939 18.571 14.4928 18.4726 15.4006 18.0966C16.3083 17.7206 17.0842 17.0838 17.6301 16.2669C18.176 15.4499 18.4674 14.4894 18.4674 13.5068C18.4659 12.1897 17.942 10.9269 17.0106 9.99559C16.0793 9.06424 14.8165 8.54035 13.4994 8.53885ZM13.4994 15.9908C13.0081 15.9908 12.5279 15.8451 12.1194 15.5722C11.7109 15.2992 11.3925 14.9113 11.2045 14.4574C11.0165 14.0035 10.9673 13.5041 11.0631 13.0222C11.159 12.5404 11.3956 12.0978 11.743 11.7504C12.0904 11.403 12.533 11.1664 13.0148 11.0706C13.4966 10.9747 13.9961 11.0239 14.45 11.2119C14.9039 11.3999 15.2918 11.7183 15.5648 12.1268C15.8377 12.5353 15.9834 13.0155 15.9834 13.5068C15.9826 14.1654 15.7207 14.7967 15.255 15.2624C14.7893 15.7281 14.158 15.99 13.4994 15.9908Z" fill="#FBFBFB"/>
<path d="M23.0458 3.95304C20.6854 1.59329 17.5347 0.191498 14.2015 0.0182197C10.8684 -0.155059 7.58928 0.912457 4.99696 3.01473C2.40465 5.11701 0.68294 8.10502 0.164136 11.4021C-0.354667 14.6991 0.366209 18.0715 2.18764 20.8683L11.573 35.2764C11.7818 35.597 12.0674 35.8604 12.4038 36.0427C12.7402 36.2251 13.1168 36.3206 13.4994 36.3206C13.8821 36.3206 14.2586 36.2251 14.595 36.0427C14.9314 35.8604 15.217 35.597 15.4259 35.2764L24.8115 20.8683C26.5016 18.2738 27.2485 15.1773 26.927 12.0977C26.6055 9.01803 25.2352 6.1425 23.0458 3.95304ZM22.7303 19.5124L13.4995 33.6827L4.26859 19.5124C1.44306 15.1748 2.04908 9.37006 5.70954 5.70944C6.73251 4.68644 7.94697 3.87494 9.28357 3.3213C10.6202 2.76765 12.0527 2.48269 13.4995 2.48269C14.9462 2.48269 16.3788 2.76765 17.7154 3.3213C19.052 3.87494 20.2664 4.68644 21.2894 5.70944C24.9498 9.37006 25.5558 15.1748 22.7303 19.5124Z" fill="#FBFBFB"/>
</svg>
