<svg width="34" height="35" viewBox="0 0 34 35" fill="none" xmlns="http://www.w3.org/2000/svg">
<path d="M0 35L2.44141 25.9223C0.472495 22.3861 -0.153039 18.2596 0.679568 14.3002C1.51218 10.3406 3.74711 6.81368 6.97422 4.36647C10.2013 1.91934 14.2042 0.716064 18.2483 0.977471C22.2924 1.23888 26.1064 2.9475 28.9904 5.78975C31.8745 8.63201 33.6351 12.4172 33.9493 16.4509C34.2634 20.4845 33.1101 24.496 30.7008 27.7492C28.2915 31.0023 24.7879 33.279 20.833 34.1614C16.878 35.0439 12.7369 34.4728 9.16968 32.5531L0 35ZM9.61178 29.1561L10.1789 29.4919C12.7627 31.0209 15.7806 31.6537 18.7623 31.2915C21.7439 30.9293 24.5218 29.5927 26.6631 27.4899C28.8043 25.387 30.1887 22.636 30.6004 19.6657C31.0121 16.6953 30.428 13.6725 28.9392 11.0681C27.4503 8.4638 25.1404 6.42428 22.3693 5.26739C19.5982 4.11057 16.5216 3.90134 13.619 4.6724C10.7163 5.44339 8.15074 7.15142 6.32193 9.53017C4.49312 11.9089 3.50383 14.8248 3.50829 17.8234C3.50592 20.3098 4.19463 22.7481 5.49795 24.8667L5.8536 25.4521L4.48874 30.5188L9.61178 29.1561Z" fill="#FBFBFB"/>
<path fill-rule="evenodd" clip-rule="evenodd" d="M23.3756 20.1549C23.0431 19.8872 22.6539 19.6987 22.2374 19.604C21.821 19.5092 21.3884 19.5105 20.9726 19.6079C20.3479 19.867 19.9441 20.8457 19.5405 21.3352C19.4553 21.4525 19.3303 21.5348 19.1887 21.5666C19.0471 21.5984 18.8988 21.5775 18.7715 21.5078C16.4842 20.6135 14.567 18.9734 13.3313 16.8539C13.2258 16.7217 13.1759 16.5537 13.1921 16.3855C13.2083 16.2172 13.2891 16.0618 13.4177 15.9519C13.868 15.5069 14.1986 14.9557 14.3789 14.3494C14.419 13.6806 14.2655 13.0144 13.9368 12.4302C13.6827 11.6112 13.199 10.882 12.5431 10.3287C12.2048 10.1768 11.8296 10.1259 11.4629 10.1821C11.0963 10.2383 10.7537 10.3991 10.4765 10.6454C9.99542 11.0597 9.6136 11.5766 9.35911 12.1578C9.10454 12.7392 8.98391 13.37 9.00598 14.0039C9.0074 14.3599 9.05266 14.7145 9.14051 15.0595C9.36372 15.8885 9.70696 16.6805 10.1594 17.4104C10.4858 17.9696 10.8419 18.511 11.2263 19.0322C12.4753 20.7441 14.0455 22.1975 15.8495 23.3119C16.7548 23.8782 17.7223 24.3387 18.733 24.6841C19.783 25.1592 20.9422 25.3416 22.0876 25.2118C22.7401 25.1133 23.3585 24.856 23.8881 24.4628C24.4178 24.0696 24.8425 23.5524 25.1249 22.9568C25.2908 22.5971 25.3412 22.1948 25.269 21.8054C25.0961 21.0089 24.0291 20.5387 23.3756 20.1549Z" fill="#FBFBFB"/>
</svg>
