<svg width="34" height="26" viewBox="0 0 34 26" fill="none" xmlns="http://www.w3.org/2000/svg">
<path d="M20 12.6502L14.75 15.6502V9.65018L20 12.6502Z" fill="#FBFBFB" stroke="#FBFBFB" stroke-width="3.47" stroke-linecap="round" stroke-linejoin="round"/>
<path d="M2 13.7114V11.5888C2 7.24573 2 5.07424 3.35823 3.67703C4.71648 2.27983 6.85484 2.21934 11.1315 2.09838C13.1581 2.04107 15.2282 2 17 2C18.7718 2 20.842 2.04107 22.8685 2.09838C27.1451 2.21934 29.2835 2.27983 30.6417 3.67703C32 5.07424 32 7.24573 32 11.5888V13.7114C32 18.0544 32 20.2259 30.6417 21.623C29.2835 23.0202 27.1453 23.0807 22.8686 23.2018C20.842 23.2591 18.7718 23.3002 17 23.3002C15.2282 23.3002 13.158 23.2591 11.1314 23.2018C6.85476 23.0807 4.71645 23.0202 3.35822 21.623C2 20.2259 2 18.0544 2 13.7114Z" stroke="#FBFBFB" stroke-width="3.47"/>
</svg>
